<svg width="700" height="700" viewBox="0 0 700 700" fill="none" xmlns="http://www.w3.org/2000/svg">
<mask id="mask0" mask-type="alpha" maskUnits="userSpaceOnUse" x="33" y="32" width="639" height="638">
<path d="M352.041 669.681C528.242 669.681 671.082 526.931 671.082 350.841C671.082 174.75 528.242 32 352.041 32C175.839 32 33 174.75 33 350.841C33 526.931 175.839 669.681 352.041 669.681Z" fill="#252B34"/>
</mask>
<g mask="url(#mask0)">
<path fill-rule="evenodd" clip-rule="evenodd" d="M240.493 376.232L76.8988 556.699L-3.08594 377.05L240.493 376.232ZM458.59 376.842L702.168 377.66L622.183 557.308L458.59 376.842ZM391.122 350.148L625.096 623.043L450.753 704.397L391.122 350.148ZM309.362 353.658L247.524 704.222L73.1807 622.868L309.362 353.658ZM351.376 317.64L415.67 712.639L286.38 712.645L351.376 317.64Z" fill="#252B34"/>
<path fill-rule="evenodd" clip-rule="evenodd" d="M409.431 95.0969H735.558V32H-30.1396V95.0969H294.645C313.06 90.7081 332.277 88.3845 352.038 88.3845C371.798 88.3845 391.015 90.7081 409.431 95.0969ZM237.424 116.577H-30.1396V179.674H160.481C181.496 153.776 207.664 132.225 237.424 116.577L237.424 116.577ZM466.652 116.577H735.558V179.674H543.594C522.579 153.776 496.412 132.225 466.652 116.577V116.577ZM144.023 202.496H-30.1396V265.593H115.377C121.958 243.056 131.675 221.856 144.023 202.496ZM560.052 202.496H735.558V265.593H588.699C582.117 243.056 572.401 221.856 560.052 202.496ZM109.887 288.415H-30.1396V351.512H106.1C105.726 345.967 105.537 340.371 105.537 334.731C105.537 318.899 107.031 303.416 109.887 288.415ZM594.189 288.415H735.558V351.512H597.976C598.349 345.967 598.539 340.371 598.539 334.731C598.539 318.899 597.044 303.416 594.189 288.415Z" fill="#252B34"/>
<path fill-rule="evenodd" clip-rule="evenodd" d="M352.1 129.201C352.149 129.175 352.199 129.161 352.249 129.162C355.321 129.191 357.914 129.694 358.361 132.743C358.827 135.893 359.238 138.963 359.581 141.706C359.96 144.701 362.422 146.951 365.422 147.154C371.294 147.553 377.097 148.2 382.823 149.087C385.821 149.553 388.736 147.87 389.737 144.997C390.611 142.486 391.605 139.698 392.666 136.841C393.761 133.893 396.867 132.218 399.923 132.916C400.507 133.052 401.09 133.188 401.674 133.324C404.677 134.037 406.726 136.836 406.483 139.924C406.243 143.021 405.969 146.027 405.705 148.714C405.409 151.718 407.309 154.458 410.187 155.328C415.806 157.027 421.321 158.963 426.722 161.125C429.546 162.254 432.765 161.266 434.38 158.684C435.749 156.495 437.287 154.077 438.901 151.606C440.625 148.967 444.041 148.03 446.868 149.406C447.427 149.678 447.984 149.952 448.541 150.229C451.301 151.601 452.668 154.783 451.749 157.733C450.849 160.619 449.94 163.41 449.109 165.908C448.155 168.765 449.396 171.856 452.005 173.35C457.086 176.26 462.028 179.386 466.822 182.712C469.324 184.446 472.681 184.201 474.831 182.044C476.595 180.273 478.564 178.324 480.618 176.338C482.88 174.149 486.411 173.997 488.867 175.965C489.373 176.369 489.877 176.777 490.38 177.187C492.773 179.141 493.405 182.555 491.849 185.228C490.378 187.758 488.923 190.192 487.599 192.373C486.035 194.947 486.56 198.241 488.774 200.281C493.077 204.24 497.207 208.384 501.155 212.697C503.215 214.947 506.551 215.443 509.127 213.818C511.171 212.527 513.441 211.118 515.799 209.688C518.487 208.059 521.962 208.687 523.926 211.148C524.344 211.672 524.762 212.197 525.175 212.727C527.088 215.168 526.944 218.651 524.826 220.917C522.9 222.978 521.013 224.954 519.295 226.725C517.193 228.892 516.963 232.229 518.679 234.718C521.996 239.525 525.111 244.483 528.015 249.582C529.526 252.231 532.668 253.459 535.54 252.45C537.757 251.669 540.205 250.828 542.744 249.984C545.728 248.993 548.984 250.386 550.349 253.232C550.647 253.853 550.943 254.476 551.236 255.102C552.552 257.911 551.641 261.266 549.075 262.999C546.81 264.53 544.601 265.987 542.592 267.292C540.064 268.935 539.099 272.135 540.218 274.944C542.377 280.363 544.308 285.896 546.006 291.533C546.885 294.452 549.667 296.364 552.683 296.023C554.958 295.764 557.46 295.498 560.05 295.248C563.183 294.947 566.055 297.037 566.753 300.118C566.908 300.81 567.071 301.505 567.222 302.2C567.878 305.231 566.258 308.295 563.375 309.411C560.892 310.37 558.515 311.272 556.325 312.074C553.495 313.11 551.907 316.009 552.368 318.994C553.258 324.74 554.036 330.564 554.438 336.457C554.644 339.497 557.186 341.984 560.207 342.325C562.429 342.576 565.376 342.866 567.896 343.193C570.993 343.593 574.36 346.229 574.36 349.36C574.36 349.555 574.36 349.749 574.36 349.943C574.36 350.019 574.343 350.095 574.312 350.171H527.137C527.023 339.479 525.961 328.796 523.952 318.249C521.693 306.386 509.476 299.269 498.03 302.999C493.125 304.599 488.22 306.2 483.312 307.8C473.805 310.9 468.007 320.547 469.745 330.425C470.895 336.959 471.521 343.562 471.624 350.171H433.822C433.577 304.726 396.793 267.96 351.452 267.96C306.115 267.96 269.328 304.726 269.083 350.171H231.283C231.385 343.562 232.011 336.959 233.16 330.425C234.9 320.547 229.102 310.9 219.593 307.8C214.688 306.2 209.783 304.599 204.875 302.999C193.431 299.269 181.215 306.386 178.953 318.249C176.944 328.796 175.882 339.479 175.768 350.171H131.062C131.096 350.095 131.116 350.019 131.116 349.943C131.116 349.911 131.116 349.877 131.116 349.842C131.116 346.769 132.259 344.179 135.288 343.726C138.504 343.247 140.489 342.823 143.284 342.469C146.268 342.091 148.512 339.617 148.714 336.608C149.111 330.716 149.756 324.89 150.64 319.146C151.104 316.137 149.425 313.211 146.561 312.207C143.913 311.275 140.947 310.21 137.923 309.076C135.006 307.978 133.343 304.892 134.009 301.841C134.126 301.303 134.246 300.768 134.366 300.233C135.054 297.194 137.851 295.117 140.945 295.354C144.227 295.607 147.427 295.898 150.267 296.18C153.26 296.475 155.991 294.569 156.859 291.68C158.551 286.043 160.48 280.507 162.633 275.086C163.757 272.255 162.771 269.022 160.2 267.401C157.805 265.891 155.13 264.176 152.415 262.379C149.809 260.656 148.871 257.264 150.211 254.436C150.443 253.946 150.675 253.459 150.909 252.971C152.26 250.176 155.439 248.783 158.397 249.702C161.575 250.692 164.663 251.701 167.397 252.62C170.243 253.576 173.328 252.33 174.815 249.712C177.716 244.613 180.828 239.655 184.143 234.843C185.869 232.332 185.624 228.959 183.477 226.802C181.473 224.794 179.24 222.52 176.983 220.156C174.823 217.89 174.665 214.364 176.608 211.907C176.944 211.48 177.282 211.057 177.623 210.634C179.56 208.219 182.962 207.577 185.635 209.132C188.518 210.807 191.305 212.482 193.767 213.989C196.333 215.557 199.618 215.03 201.648 212.809C205.594 208.493 209.721 204.347 214.022 200.382C216.257 198.321 216.763 194.982 215.149 192.405C213.646 190.003 211.978 187.292 210.307 184.491C208.703 181.801 209.327 178.337 211.759 176.372C212.183 176.031 212.607 175.69 213.033 175.352C215.455 173.422 218.924 173.552 221.189 175.669C223.616 177.935 225.953 180.183 228.01 182.193C230.165 184.296 233.488 184.515 235.96 182.797C240.751 179.469 245.694 176.34 250.769 173.427C253.404 171.915 254.638 168.773 253.636 165.9C252.709 163.242 251.691 160.255 250.692 157.174C249.722 154.191 251.105 150.946 253.919 149.58C254.412 149.337 254.907 149.1 255.403 148.863C258.192 147.532 261.536 148.437 263.271 151.001C265.117 153.728 266.881 156.415 268.429 158.814C270.062 161.346 273.252 162.302 276.041 161.181C281.442 159.016 286.957 157.078 292.574 155.374C295.481 154.492 297.386 151.704 297.045 148.677C296.733 145.924 296.411 142.843 296.123 139.671C295.838 136.537 297.913 133.686 300.972 132.988C301.521 132.863 302.07 132.754 302.619 132.634C305.63 131.971 308.678 133.627 309.799 136.508C310.977 139.538 312.083 142.563 313.047 145.213C314.079 148.043 316.969 149.798 319.935 149.335C325.658 148.443 331.461 148.011 337.334 147.609C340.366 147.401 342.841 145.551 343.182 142.521C343.483 139.818 343.843 137.69 344.256 134.594C344.336 133.988 344.502 133.479 344.739 133.052C344.925 130.208 347.379 128.924 352.1 129.201ZM205.618 253.64C198.858 263.63 202.482 277.336 213.204 282.818C217.802 285.167 222.399 287.518 226.995 289.869C235.902 294.422 246.799 291.717 252.53 283.497C260.851 271.563 271.195 261.181 283.086 252.83C291.276 247.079 293.973 236.14 289.435 227.201C287.093 222.589 284.751 217.975 282.409 213.363C276.947 202.603 263.292 198.966 253.338 205.75C234.562 218.545 218.367 234.798 205.618 253.64ZM317.71 178.99C305.891 181.256 298.801 193.518 302.518 205.002C304.114 209.928 305.707 214.852 307.3 219.775C310.388 229.316 320.002 235.136 329.847 233.392C344.139 230.857 358.766 230.857 373.061 233.392C382.903 235.136 392.516 229.316 395.604 219.775C397.2 214.852 398.794 209.928 400.387 205.002C404.107 193.518 397.014 181.256 385.195 178.99C362.904 174.711 340.003 174.711 317.71 178.99ZM413.472 227.201C408.932 236.14 411.631 247.079 419.821 252.83C431.713 261.181 442.056 271.563 450.377 283.497C456.108 291.717 467.006 294.422 475.913 289.869C480.509 287.518 485.105 285.167 489.701 282.818C500.423 277.336 504.049 263.63 497.287 253.64C484.537 234.798 468.346 218.545 449.57 205.75C439.615 198.966 425.96 202.603 420.498 213.363C418.156 217.975 415.814 222.589 413.472 227.201Z" fill="#252B34"/>
</g>
</svg>
