<svg width="420" height="90" viewBox="0 0 420 90" fill="none" xmlns="http://www.w3.org/2000/svg">
<path d="M130.364 54.2803H125.024V43.2421H114.609V54.2803H109.268V28.5244H114.609V38.9612H125.024V28.5244H130.364V54.2803Z" fill="#FFFFFF"/>
<path d="M156.339 41.9861C156.339 44.5216 155.888 46.7446 154.986 48.655C154.084 50.5655 152.79 52.0396 151.105 53.0774C149.431 54.1152 147.509 54.6341 145.337 54.6341C143.189 54.6341 141.272 54.1211 139.586 53.0951C137.901 52.0691 136.596 50.6068 135.67 48.7081C134.744 46.7976 134.275 44.6042 134.263 42.1276V40.854C134.263 38.3185 134.72 36.0896 135.634 34.1674C136.56 32.2333 137.86 30.7533 139.533 29.7273C141.218 28.6895 143.141 28.1707 145.301 28.1707C147.461 28.1707 149.378 28.6895 151.051 29.7273C152.737 30.7533 154.036 32.2333 154.95 34.1674C155.876 36.0896 156.339 38.3126 156.339 40.8363V41.9861ZM150.927 40.8186C150.927 38.118 150.44 36.066 149.467 34.6627C148.494 33.2593 147.105 32.5576 145.301 32.5576C143.509 32.5576 142.126 33.2534 141.153 34.645C140.18 36.0248 139.687 38.0532 139.675 40.7302V41.9861C139.675 44.6159 140.162 46.6561 141.135 48.1067C142.108 49.5572 143.509 50.2825 145.337 50.2825C147.129 50.2825 148.506 49.5867 149.467 48.1951C150.428 46.7917 150.915 44.7516 150.927 42.0746V40.8186Z" fill="#FFFFFF"/>
<path d="M169.816 44.8518H165.561V54.2803H160.22V28.5244H169.851C172.913 28.5244 175.275 29.2025 176.937 30.5587C178.598 31.9149 179.429 33.8313 179.429 36.3078C179.429 38.065 179.044 39.5332 178.272 40.7125C177.512 41.88 176.355 42.8116 174.801 43.5074L180.408 54.0326V54.2803H174.676L169.816 44.8518ZM165.561 40.5533H169.869C171.21 40.5533 172.249 40.2172 172.985 39.545C173.72 38.861 174.088 37.9234 174.088 36.7323C174.088 35.5177 173.738 34.5624 173.038 33.8667C172.35 33.1709 171.287 32.823 169.851 32.823H165.561V40.5533Z" fill="#FFFFFF"/>
<path d="M189.185 54.2803H183.844V28.5244H189.185V54.2803Z" fill="#FFFFFF"/>
<path d="M199.814 50.0171H212.881V54.2803H193.137V51.1669L205.956 32.823H193.155V28.5244H212.596V31.567L199.814 50.0171Z" fill="#FFFFFF"/>
<path d="M237.093 41.9861C237.093 44.5216 236.642 46.7446 235.74 48.655C234.838 50.5655 233.544 52.0396 231.859 53.0774C230.185 54.1152 228.263 54.6341 226.091 54.6341C223.942 54.6341 222.026 54.1211 220.34 53.0951C218.655 52.0691 217.349 50.6068 216.424 48.7081C215.498 46.7976 215.029 44.6042 215.017 42.1276V40.854C215.017 38.3185 215.474 36.0896 216.388 34.1674C217.314 32.2333 218.613 30.7533 220.287 29.7273C221.972 28.6895 223.895 28.1707 226.055 28.1707C228.215 28.1707 230.132 28.6895 231.805 29.7273C233.491 30.7533 234.79 32.2333 235.704 34.1674C236.63 36.0896 237.093 38.3126 237.093 40.8363V41.9861ZM231.681 40.8186C231.681 38.118 231.194 36.066 230.221 34.6627C229.248 33.2593 227.859 32.5576 226.055 32.5576C224.263 32.5576 222.88 33.2534 221.907 34.645C220.934 36.0248 220.441 38.0532 220.429 40.7302V41.9861C220.429 44.6159 220.916 46.6561 221.889 48.1067C222.862 49.5572 224.263 50.2825 226.091 50.2825C227.883 50.2825 229.26 49.5867 230.221 48.1951C231.182 46.7917 231.669 44.7516 231.681 42.0746V40.8186Z" fill="#FFFFFF"/>
<path d="M262.052 54.2803H256.712L246.315 37.3338V54.2803H240.974V28.5244H246.315L256.729 45.5063V28.5244H262.052V54.2803Z" fill="#FFFFFF"/>
<path d="M295.522 46.1078C295.201 48.8319 294.187 50.937 292.478 52.4229C290.78 53.897 288.519 54.6341 285.695 54.6341C282.633 54.6341 280.176 53.5432 278.324 51.3615C276.485 49.1798 275.565 46.2611 275.565 42.6052V40.1287C275.565 37.7347 275.992 35.6297 276.847 33.8136C277.713 31.9975 278.936 30.6059 280.514 29.6389C282.093 28.6601 283.92 28.1707 285.997 28.1707C288.751 28.1707 290.958 28.9372 292.62 30.4703C294.282 31.9916 295.249 34.1025 295.522 36.8031H292.086C291.789 34.7511 291.142 33.2652 290.145 32.3454C289.16 31.4255 287.778 30.9656 285.997 30.9656C283.814 30.9656 282.099 31.7675 280.852 33.3714C279.618 34.9752 279.001 37.2571 279.001 40.2172V42.7114C279.001 45.5063 279.588 47.7293 280.763 49.3803C281.938 51.0313 283.582 51.8568 285.695 51.8568C287.594 51.8568 289.048 51.4323 290.056 50.5832C291.077 49.7223 291.754 48.2305 292.086 46.1078H295.522Z" fill="#FFFFFF"/>
<path d="M308.109 41.4554L314.874 28.5244H318.755L309.818 44.6749V54.2803H306.4V44.6749L297.462 28.5244H301.379L308.109 41.4554Z" fill="#FFFFFF"/>
<path d="M340.634 46.1078C340.314 48.8319 339.299 50.937 337.59 52.4229C335.893 53.897 333.632 54.6341 330.807 54.6341C327.745 54.6341 325.288 53.5432 323.437 51.3615C321.597 49.1798 320.677 46.2611 320.677 42.6052V40.1287C320.677 37.7347 321.105 35.6297 321.959 33.8136C322.826 31.9975 324.048 30.6059 325.627 29.6389C327.205 28.6601 329.033 28.1707 331.11 28.1707C333.863 28.1707 336.071 28.9372 337.733 30.4703C339.394 31.9916 340.361 34.1025 340.634 36.8031H337.199C336.902 34.7511 336.255 33.2652 335.258 32.3454C334.273 31.4255 332.89 30.9656 331.11 30.9656C328.926 30.9656 327.211 31.7675 325.965 33.3714C324.731 34.9752 324.113 37.2571 324.113 40.2172V42.7114C324.113 45.5063 324.701 47.7293 325.876 49.3803C327.051 51.0313 328.695 51.8568 330.807 51.8568C332.706 51.8568 334.16 51.4323 335.169 50.5832C336.19 49.7223 336.866 48.2305 337.199 46.1078H340.634Z" fill="#FFFFFF"/>
<path d="M348.753 51.503H361.037V54.2803H345.317V28.5244H348.753V51.503Z" fill="#FFFFFF"/>
<path d="M368.603 54.2803H365.185V28.5244H368.603V54.2803Z" fill="#FFFFFF"/>
<path d="M394.791 54.2803H391.355L378.305 34.4327V54.2803H374.869V28.5244H378.305L391.391 48.4605V28.5244H394.791V54.2803Z" fill="#FFFFFF"/>
<path d="M420 50.9016C419.121 52.1517 417.893 53.0892 416.315 53.7142C414.748 54.3275 412.92 54.6341 410.831 54.6341C408.719 54.6341 406.843 54.1447 405.206 53.1658C403.568 52.1752 402.298 50.7719 401.396 48.9558C400.506 47.1396 400.049 45.0346 400.025 42.6406V40.3941C400.025 36.5142 400.933 33.507 402.749 31.3724C404.577 29.2379 407.14 28.1707 410.44 28.1707C413.146 28.1707 415.324 28.8605 416.973 30.2403C418.623 31.6083 419.632 33.5541 420 36.0778H416.582C415.941 32.6697 413.899 30.9656 410.457 30.9656C408.167 30.9656 406.428 31.7675 405.241 33.3714C404.066 34.9634 403.473 37.2748 403.461 40.3056V42.4107C403.461 45.2999 404.126 47.5996 405.455 49.3095C406.784 51.0077 408.582 51.8568 410.849 51.8568C412.131 51.8568 413.252 51.7153 414.214 51.4323C415.175 51.1492 415.97 50.6716 416.599 49.9994V44.215H410.6V41.4554H420V50.9016Z" fill="#FFFFFF"/>
<mask id="mask0" mask-type="alpha" maskUnits="userSpaceOnUse" x="0" y="0" width="90" height="90">
<path d="M44.9484 89.8404C69.7727 89.8404 89.8968 69.7289 89.8968 44.9202C89.8968 20.1114 69.7727 0 44.9484 0C20.1241 0 0 20.1114 0 44.9202C0 69.7289 20.1241 89.8404 44.9484 89.8404Z" fill="#FFFFFF"/>
</mask>
<g mask="url(#mask0)">
<path fill-rule="evenodd" clip-rule="evenodd" d="M29.2333 48.4974L6.18523 73.9227L-5.0835 48.6127L29.2333 48.4974ZM59.9601 48.5833L94.2769 48.6986L83.0082 74.0085L59.9601 48.5833ZM50.4549 44.8226L83.4185 83.2696L58.856 94.7313L50.4549 44.8226ZM38.936 45.3171L30.2239 94.7066L5.6614 83.245L38.936 45.3171ZM44.8552 40.2427L53.9133 95.8925L35.6982 95.8933L44.8552 40.2427Z" fill="#FFFFFF"/>
<path fill-rule="evenodd" clip-rule="evenodd" d="M53.0343 8.88947H98.9811V0H-8.89502V8.88947H36.8625C39.457 8.27115 42.1645 7.94378 44.9484 7.94378C47.7323 7.94378 50.4398 8.27115 53.0343 8.88947ZM28.8009 11.9157H-8.89502V20.8051H17.9608C20.9215 17.1566 24.6081 14.1202 28.8009 11.9157L28.8009 11.9157ZM61.0959 11.9157H98.9811V20.8051H71.936C68.9753 17.1566 65.2887 14.1202 61.0959 11.9157V11.9157ZM15.6421 24.0205H-8.89502V32.9099H11.6062C12.5334 29.7349 13.9023 26.7481 15.6421 24.0205ZM74.2547 24.0205H98.9811V32.9099H78.2906C77.3634 29.7349 75.9945 26.7481 74.2547 24.0205ZM10.8327 36.1253H-8.89502V45.0147H10.2992C10.2466 44.2335 10.2199 43.4451 10.2199 42.6505C10.2199 40.42 10.4304 38.2387 10.8327 36.1253ZM79.0641 36.1253H98.9811V45.0147H79.5976C79.6502 44.2335 79.6769 43.4451 79.6769 42.6505C79.6769 40.42 79.4664 38.2387 79.0641 36.1253Z" fill="#FFFFFF"/>
<path fill-rule="evenodd" clip-rule="evenodd" d="M44.9571 13.6942C44.9641 13.6906 44.9711 13.6887 44.9781 13.6887C45.4109 13.6928 45.7762 13.7637 45.8392 14.1933C45.9049 14.6371 45.9627 15.0696 46.0112 15.456C46.0645 15.8781 46.4113 16.1951 46.834 16.2236C47.6613 16.2798 48.4789 16.371 49.2856 16.4959C49.7079 16.5616 50.1186 16.3245 50.2597 15.9197C50.3828 15.5659 50.5229 15.1732 50.6723 14.7706C50.8265 14.3554 51.2642 14.1194 51.6948 14.2177C51.777 14.2368 51.8592 14.2559 51.9414 14.2751C52.3645 14.3756 52.6531 14.7699 52.619 15.2051C52.5852 15.6413 52.5465 16.0649 52.5094 16.4434C52.4677 16.8666 52.7353 17.2526 53.1408 17.3753C53.9324 17.6146 54.7095 17.8873 55.4704 18.1919C55.8683 18.351 56.3217 18.2118 56.5492 17.8479C56.7421 17.5396 56.9587 17.1989 57.1862 16.8508C57.4291 16.479 57.9103 16.347 58.3086 16.5409C58.3874 16.5792 58.4659 16.6178 58.5443 16.6569C58.9332 16.8501 59.1258 17.2984 58.9963 17.714C58.8694 18.1207 58.7414 18.5138 58.6243 18.8657C58.4899 19.2682 58.6648 19.7038 59.0323 19.9142C59.7482 20.3243 60.4445 20.7647 61.1198 21.2332C61.4723 21.4775 61.9453 21.4429 62.2482 21.1391C62.4967 20.8896 62.7741 20.615 63.0635 20.3351C63.3822 20.0268 63.8796 20.0054 64.2257 20.2826C64.297 20.3396 64.368 20.397 64.4389 20.4548C64.776 20.7302 64.865 21.2111 64.6458 21.5877C64.4385 21.9441 64.2336 22.287 64.047 22.5943C63.8267 22.957 63.9006 23.4211 64.2126 23.7084C64.8188 24.2663 65.4006 24.85 65.957 25.4577C66.2471 25.7747 66.7171 25.8445 67.0801 25.6157C67.368 25.4337 67.6878 25.2353 68.02 25.0338C68.3988 24.8042 68.8883 24.8928 69.1649 25.2394C69.2239 25.3133 69.2828 25.3872 69.341 25.4619C69.6105 25.8059 69.5903 26.2966 69.2918 26.6158C69.0204 26.9062 68.7547 27.1845 68.5125 27.434C68.2164 27.7394 68.1841 28.2094 68.4258 28.5602C68.8932 29.2373 69.332 29.9358 69.7411 30.6542C69.954 31.0275 70.3966 31.2004 70.8012 31.0583C71.1135 30.9483 71.4585 30.8298 71.8162 30.7109C72.2367 30.5713 72.6954 30.7675 72.8876 31.1685C72.9296 31.256 72.9713 31.3437 73.0126 31.4319C73.198 31.8277 73.0696 32.3004 72.7081 32.5446C72.3891 32.7603 72.0779 32.9655 71.7949 33.1493C71.4386 33.3808 71.3027 33.8317 71.4604 34.2275C71.7644 34.9909 72.0366 35.7704 72.2757 36.5646C72.3996 36.9758 72.7915 37.2451 73.2164 37.1971C73.537 37.1607 73.8895 37.1232 74.2543 37.0879C74.6958 37.0455 75.1004 37.34 75.1988 37.7741C75.2206 37.8716 75.2435 37.9695 75.2649 38.0674C75.3572 38.4944 75.129 38.9261 74.7228 39.0833C74.373 39.2184 74.0381 39.3456 73.7296 39.4585C73.3309 39.6044 73.1072 40.0129 73.1721 40.4335C73.2975 41.243 73.4071 42.0635 73.4638 42.8937C73.4927 43.3221 73.8508 43.6725 74.2765 43.7205C74.5896 43.7558 75.0047 43.7966 75.3598 43.8428C75.796 43.8991 76.2705 44.2704 76.2705 44.7116C76.2705 44.739 76.2705 44.7664 76.2705 44.7938C76.2705 44.8045 76.268 44.8152 76.2636 44.8258H69.6174C69.6013 43.3195 69.4517 41.8143 69.1687 40.3284C68.8504 38.6572 67.1293 37.6544 65.5166 38.18C64.8256 38.4054 64.1345 38.6309 63.443 38.8564C62.1037 39.293 61.2869 40.6522 61.5316 42.044C61.6937 42.9645 61.7819 43.8947 61.7964 44.8258H56.4706C56.4361 38.4232 51.2537 33.2435 44.8659 33.2435C38.4784 33.2435 33.2957 38.4232 33.2612 44.8258H27.9357C27.9501 43.8947 28.0383 42.9645 28.2002 42.044C28.4453 40.6522 27.6285 39.293 26.2887 38.8564C25.5977 38.6309 24.9066 38.4054 24.2152 38.18C22.6029 37.6544 20.8818 38.6572 20.5631 40.3284C20.2801 41.8143 20.1305 43.3195 20.1144 44.8258H13.8159C13.8207 44.8152 13.8235 44.8045 13.8235 44.7938C13.8235 44.7893 13.8235 44.7844 13.8235 44.7795C13.8235 44.3466 13.9846 43.9816 14.4114 43.9178C14.8645 43.8503 15.1441 43.7906 15.5379 43.7407C15.9583 43.6875 16.2744 43.339 16.3029 42.9151C16.3588 42.0849 16.4497 41.264 16.5743 40.4549C16.6396 40.0309 16.4031 39.6187 15.9996 39.4772C15.6265 39.3459 15.2087 39.1959 14.7826 39.0361C14.3716 38.8815 14.1373 38.4467 14.2312 38.0168C14.2477 37.941 14.2646 37.8656 14.2815 37.7902C14.3783 37.3622 14.7725 37.0696 15.2083 37.1029C15.6708 37.1386 16.1216 37.1795 16.5218 37.2192C16.9433 37.2609 17.3281 36.9923 17.4504 36.5852C17.6888 35.7911 17.9606 35.0111 18.2639 34.2474C18.4223 33.8486 18.2834 33.3932 17.9212 33.1647C17.5837 32.952 17.2068 32.7104 16.8243 32.4572C16.4572 32.2144 16.3251 31.7365 16.5139 31.3381C16.5465 31.2691 16.5792 31.2004 16.6122 31.1318C16.8025 30.7379 17.2504 30.5417 17.667 30.6711C18.1149 30.8107 18.5499 30.9528 18.9351 31.0823C19.336 31.2169 19.7707 31.0414 19.9801 30.6726C20.3889 29.9542 20.8274 29.2557 21.2943 28.5778C21.5376 28.224 21.503 27.7487 21.2005 27.4449C20.9182 27.162 20.6036 26.8416 20.2857 26.5085C19.9812 26.1893 19.9591 25.6926 20.2328 25.3463C20.28 25.2863 20.3277 25.2266 20.3758 25.167C20.6487 24.8267 21.128 24.7363 21.5045 24.9554C21.9107 25.1914 22.3033 25.4273 22.6502 25.6397C23.0117 25.8606 23.4745 25.7864 23.7606 25.4735C24.3165 24.8654 24.898 24.2813 25.5038 23.7227C25.8188 23.4323 25.8901 22.9619 25.6626 22.5988C25.4509 22.2604 25.2159 21.8785 24.9805 21.4838C24.7546 21.1049 24.8424 20.6169 25.1851 20.34C25.2448 20.292 25.3045 20.244 25.3646 20.1963C25.7058 19.9244 26.1945 19.9427 26.5136 20.241C26.8556 20.5602 27.1848 20.8769 27.4746 21.1601C27.7783 21.4564 28.2463 21.4872 28.5947 21.2452C29.2696 20.7763 29.966 20.3355 30.6811 19.9251C31.0523 19.712 31.2261 19.2694 31.085 18.8646C30.9543 18.4902 30.8109 18.0693 30.6702 17.6352C30.5335 17.2151 30.7284 16.7578 31.1248 16.5653C31.1942 16.5312 31.264 16.4978 31.3338 16.4644C31.7269 16.2768 32.198 16.4044 32.4423 16.7657C32.7025 17.1498 32.951 17.5283 33.1691 17.8663C33.3992 18.2231 33.8485 18.3578 34.2415 18.1998C35.0024 17.8948 35.7795 17.6217 36.5708 17.3816C36.9803 17.2575 37.2487 16.8647 37.2006 16.4381C37.1567 16.0503 37.1113 15.6162 37.0708 15.1694C37.0306 14.7279 37.323 14.3261 37.754 14.2278C37.8313 14.2102 37.9086 14.1948 37.9859 14.1779C38.4101 14.0845 38.8396 14.3178 38.9976 14.7237C39.1635 15.1507 39.3193 15.5768 39.4552 15.9501C39.6004 16.3489 40.0077 16.5961 40.4255 16.5308C41.2318 16.4051 42.0494 16.3444 42.8768 16.2877C43.3039 16.2585 43.6527 15.9977 43.7007 15.5708C43.7431 15.19 43.7938 14.8903 43.852 14.454C43.8634 14.3687 43.8866 14.297 43.92 14.2369C43.9463 13.8361 44.292 13.6552 44.9571 13.6942ZM24.3199 31.2259C23.3675 32.6335 23.8781 34.5643 25.3886 35.3368C26.0365 35.6676 26.684 35.9989 27.3315 36.3301C28.5864 36.9716 30.1217 36.5905 30.9292 35.4324C32.1015 33.751 33.5587 32.2884 35.234 31.1119C36.3879 30.3016 36.7678 28.7605 36.1286 27.5011C35.7986 26.8514 35.4686 26.2013 35.1387 25.5515C34.3692 24.0356 32.4453 23.5231 31.0429 24.479C28.3976 26.2815 26.1161 28.5714 24.3199 31.2259ZM40.1121 20.7088C38.4469 21.028 37.448 22.7556 37.9717 24.3736C38.1965 25.0676 38.421 25.7612 38.6455 26.4549C39.0805 27.799 40.4349 28.6191 41.8219 28.3733C43.8355 28.0162 45.8963 28.0162 47.9102 28.3733C49.2969 28.6191 50.6512 27.799 51.0863 26.4549C51.3112 25.7612 51.5356 25.0676 51.7601 24.3736C52.2841 22.7556 51.2849 21.028 49.6197 20.7088C46.4793 20.1059 43.2529 20.1059 40.1121 20.7088ZM53.6036 27.5011C52.9639 28.7605 53.3442 30.3016 54.4981 31.1119C56.1734 32.2884 57.6307 33.751 58.803 35.4324C59.6104 36.5905 61.1457 36.9716 62.4006 36.3301C63.0481 35.9989 63.6957 35.6676 64.3432 35.3368C65.8537 34.5643 66.3646 32.6335 65.4119 31.2259C63.6157 28.5714 61.3345 26.2815 58.6892 24.479C57.2868 23.5231 55.363 24.0356 54.5935 25.5515C54.2635 26.2013 53.9336 26.8514 53.6036 27.5011Z" fill="#FFFFFF"/>
</g>
</svg>

